<mxfile host="app.diagrams.net" modified="2023-11-21T16:20:19.229Z" agent="Mozilla/5.0 (Windows NT 10.0; Win64; x64) AppleWebKit/537.36 (KHTML, like Gecko) Chrome/119.0.0.0 Safari/537.36 Edg/119.0.0.0" etag="1YBN1DgrIheJrOj_PTgE" version="22.1.3" type="device" pages="2">
  <diagram name="CenarioInicial" id="IohBO7KgcMT56puslqOr">
    <mxGraphModel dx="2074" dy="827" grid="1" gridSize="10" guides="1" tooltips="1" connect="1" arrows="1" fold="1" page="1" pageScale="1" pageWidth="850" pageHeight="1100" math="0" shadow="0">
      <root>
        <mxCell id="0iTaQae-3k0Xy2t-nqPK-0" />
        <mxCell id="0iTaQae-3k0Xy2t-nqPK-1" parent="0iTaQae-3k0Xy2t-nqPK-0" />
        <mxCell id="0iTaQae-3k0Xy2t-nqPK-2" value="" style="rounded=0;whiteSpace=wrap;html=1;" vertex="1" parent="0iTaQae-3k0Xy2t-nqPK-1">
          <mxGeometry x="140" y="559" width="550" height="250" as="geometry" />
        </mxCell>
        <mxCell id="0iTaQae-3k0Xy2t-nqPK-3" style="edgeStyle=orthogonalEdgeStyle;rounded=0;orthogonalLoop=1;jettySize=auto;html=1;exitX=0.5;exitY=1;exitDx=0;exitDy=0;" edge="1" parent="0iTaQae-3k0Xy2t-nqPK-1" source="0iTaQae-3k0Xy2t-nqPK-4" target="0iTaQae-3k0Xy2t-nqPK-2">
          <mxGeometry relative="1" as="geometry" />
        </mxCell>
        <mxCell id="0iTaQae-3k0Xy2t-nqPK-4" value="" style="rounded=0;whiteSpace=wrap;html=1;" vertex="1" parent="0iTaQae-3k0Xy2t-nqPK-1">
          <mxGeometry x="120" y="60" width="590" height="400" as="geometry" />
        </mxCell>
        <mxCell id="0iTaQae-3k0Xy2t-nqPK-5" value="" style="group" vertex="1" connectable="0" parent="0iTaQae-3k0Xy2t-nqPK-1">
          <mxGeometry x="245" y="130" width="180" height="260" as="geometry" />
        </mxCell>
        <mxCell id="0iTaQae-3k0Xy2t-nqPK-6" value="" style="image;aspect=fixed;perimeter=ellipsePerimeter;html=1;align=center;shadow=0;dashed=0;spacingTop=3;image=img/lib/active_directory/database_server.svg;" vertex="1" parent="0iTaQae-3k0Xy2t-nqPK-5">
          <mxGeometry x="20" width="123" height="150" as="geometry" />
        </mxCell>
        <mxCell id="0iTaQae-3k0Xy2t-nqPK-7" value="linux08" style="text;html=1;align=center;verticalAlign=middle;resizable=0;points=[];autosize=1;strokeColor=none;fillColor=none;" vertex="1" parent="0iTaQae-3k0Xy2t-nqPK-5">
          <mxGeometry x="31.5" y="158" width="60" height="30" as="geometry" />
        </mxCell>
        <mxCell id="0iTaQae-3k0Xy2t-nqPK-8" value="DB01&lt;br&gt;DB01_prim" style="image;html=1;image=img/lib/clip_art/computers/Database_128x128.png" vertex="1" parent="0iTaQae-3k0Xy2t-nqPK-5">
          <mxGeometry x="91.5" y="200" width="80" height="80" as="geometry" />
        </mxCell>
        <mxCell id="0iTaQae-3k0Xy2t-nqPK-12" value="PRIMARY&lt;br&gt;SINGLE-INSTANCE" style="text;html=1;strokeColor=none;fillColor=none;align=center;verticalAlign=middle;whiteSpace=wrap;rounded=0;" vertex="1" parent="0iTaQae-3k0Xy2t-nqPK-1">
          <mxGeometry x="370" y="80" width="110" height="30" as="geometry" />
        </mxCell>
        <mxCell id="0iTaQae-3k0Xy2t-nqPK-13" value="DB02" style="image;html=1;image=img/lib/clip_art/computers/Database_128x128.png" vertex="1" parent="0iTaQae-3k0Xy2t-nqPK-1">
          <mxGeometry x="440" y="330" width="80" height="80" as="geometry" />
        </mxCell>
        <mxCell id="0iTaQae-3k0Xy2t-nqPK-14" value="" style="group" vertex="1" connectable="0" parent="0iTaQae-3k0Xy2t-nqPK-1">
          <mxGeometry x="290" y="620" width="230" height="188" as="geometry" />
        </mxCell>
        <mxCell id="0iTaQae-3k0Xy2t-nqPK-15" value="" style="group" vertex="1" connectable="0" parent="0iTaQae-3k0Xy2t-nqPK-14">
          <mxGeometry width="141.45" height="188" as="geometry" />
        </mxCell>
        <mxCell id="0iTaQae-3k0Xy2t-nqPK-16" value="" style="image;aspect=fixed;perimeter=ellipsePerimeter;html=1;align=center;shadow=0;dashed=0;spacingTop=3;image=img/lib/active_directory/database_server.svg;" vertex="1" parent="0iTaQae-3k0Xy2t-nqPK-15">
          <mxGeometry width="123" height="150" as="geometry" />
        </mxCell>
        <mxCell id="0iTaQae-3k0Xy2t-nqPK-17" value="linux10" style="text;html=1;align=center;verticalAlign=middle;resizable=0;points=[];autosize=1;strokeColor=none;fillColor=none;" vertex="1" parent="0iTaQae-3k0Xy2t-nqPK-15">
          <mxGeometry x="36.224999999999994" y="158" width="60" height="30" as="geometry" />
        </mxCell>
        <mxCell id="0iTaQae-3k0Xy2t-nqPK-18" value="DB01&lt;br&gt;DB01_stdby" style="image;html=1;image=img/lib/clip_art/computers/Database_128x128.png" vertex="1" parent="0iTaQae-3k0Xy2t-nqPK-14">
          <mxGeometry x="138" y="24" width="92" height="80" as="geometry" />
        </mxCell>
        <mxCell id="0iTaQae-3k0Xy2t-nqPK-19" value="STANDBY&lt;br&gt;SINGLE-INSTANCE" style="text;html=1;strokeColor=none;fillColor=none;align=center;verticalAlign=middle;whiteSpace=wrap;rounded=0;" vertex="1" parent="0iTaQae-3k0Xy2t-nqPK-1">
          <mxGeometry x="347.5" y="570" width="135" height="30" as="geometry" />
        </mxCell>
      </root>
    </mxGraphModel>
  </diagram>
  <diagram name="CenarioFinal" id="vAjxwIp9CdvoE9_7yNtV">
    <mxGraphModel dx="2074" dy="827" grid="1" gridSize="10" guides="1" tooltips="1" connect="1" arrows="1" fold="1" page="1" pageScale="1" pageWidth="850" pageHeight="1100" math="0" shadow="0">
      <root>
        <mxCell id="0" />
        <mxCell id="1" parent="0" />
        <mxCell id="9Fly0qGpTRDZqqpVd0rg-22" value="" style="rounded=0;whiteSpace=wrap;html=1;" vertex="1" parent="1">
          <mxGeometry x="140" y="559" width="550" height="250" as="geometry" />
        </mxCell>
        <mxCell id="9Fly0qGpTRDZqqpVd0rg-23" style="edgeStyle=orthogonalEdgeStyle;rounded=0;orthogonalLoop=1;jettySize=auto;html=1;exitX=0.5;exitY=1;exitDx=0;exitDy=0;" edge="1" parent="1" source="9Fly0qGpTRDZqqpVd0rg-7" target="9Fly0qGpTRDZqqpVd0rg-22">
          <mxGeometry relative="1" as="geometry" />
        </mxCell>
        <mxCell id="9Fly0qGpTRDZqqpVd0rg-7" value="" style="rounded=0;whiteSpace=wrap;html=1;" vertex="1" parent="1">
          <mxGeometry x="120" y="60" width="590" height="400" as="geometry" />
        </mxCell>
        <mxCell id="9Fly0qGpTRDZqqpVd0rg-3" value="" style="group" vertex="1" connectable="0" parent="1">
          <mxGeometry x="230" y="130" width="180" height="260" as="geometry" />
        </mxCell>
        <mxCell id="9Fly0qGpTRDZqqpVd0rg-1" value="" style="image;aspect=fixed;perimeter=ellipsePerimeter;html=1;align=center;shadow=0;dashed=0;spacingTop=3;image=img/lib/active_directory/database_server.svg;" vertex="1" parent="9Fly0qGpTRDZqqpVd0rg-3">
          <mxGeometry x="20" width="123" height="150" as="geometry" />
        </mxCell>
        <mxCell id="9Fly0qGpTRDZqqpVd0rg-2" value="linux08" style="text;html=1;align=center;verticalAlign=middle;resizable=0;points=[];autosize=1;strokeColor=none;fillColor=none;" vertex="1" parent="9Fly0qGpTRDZqqpVd0rg-3">
          <mxGeometry x="31.5" y="158" width="60" height="30" as="geometry" />
        </mxCell>
        <mxCell id="9Fly0qGpTRDZqqpVd0rg-15" value="DB01&lt;br&gt;DB01_prim" style="image;html=1;image=img/lib/clip_art/computers/Database_128x128.png" vertex="1" parent="9Fly0qGpTRDZqqpVd0rg-3">
          <mxGeometry x="91.5" y="200" width="80" height="80" as="geometry" />
        </mxCell>
        <mxCell id="9Fly0qGpTRDZqqpVd0rg-4" value="" style="group" vertex="1" connectable="0" parent="1">
          <mxGeometry x="510" y="130" width="123" height="188" as="geometry" />
        </mxCell>
        <mxCell id="9Fly0qGpTRDZqqpVd0rg-5" value="" style="image;aspect=fixed;perimeter=ellipsePerimeter;html=1;align=center;shadow=0;dashed=0;spacingTop=3;image=img/lib/active_directory/database_server.svg;" vertex="1" parent="9Fly0qGpTRDZqqpVd0rg-4">
          <mxGeometry width="123" height="150" as="geometry" />
        </mxCell>
        <mxCell id="9Fly0qGpTRDZqqpVd0rg-6" value="linux09" style="text;html=1;align=center;verticalAlign=middle;resizable=0;points=[];autosize=1;strokeColor=none;fillColor=none;" vertex="1" parent="9Fly0qGpTRDZqqpVd0rg-4">
          <mxGeometry x="31.5" y="158" width="60" height="30" as="geometry" />
        </mxCell>
        <mxCell id="9Fly0qGpTRDZqqpVd0rg-8" value="PRIMARY&lt;br&gt;CLUSTER&lt;br&gt;RACDB01" style="text;html=1;strokeColor=none;fillColor=none;align=center;verticalAlign=middle;whiteSpace=wrap;rounded=0;" vertex="1" parent="1">
          <mxGeometry x="390" y="80" width="60" height="30" as="geometry" />
        </mxCell>
        <mxCell id="9Fly0qGpTRDZqqpVd0rg-14" value="DB02" style="image;html=1;image=img/lib/clip_art/computers/Database_128x128.png" vertex="1" parent="1">
          <mxGeometry x="440" y="330" width="80" height="80" as="geometry" />
        </mxCell>
        <mxCell id="9Fly0qGpTRDZqqpVd0rg-19" value="" style="group" vertex="1" connectable="0" parent="1">
          <mxGeometry x="290" y="620" width="230" height="188" as="geometry" />
        </mxCell>
        <mxCell id="9Fly0qGpTRDZqqpVd0rg-9" value="" style="group" vertex="1" connectable="0" parent="9Fly0qGpTRDZqqpVd0rg-19">
          <mxGeometry width="141.45" height="188" as="geometry" />
        </mxCell>
        <mxCell id="9Fly0qGpTRDZqqpVd0rg-10" value="" style="image;aspect=fixed;perimeter=ellipsePerimeter;html=1;align=center;shadow=0;dashed=0;spacingTop=3;image=img/lib/active_directory/database_server.svg;" vertex="1" parent="9Fly0qGpTRDZqqpVd0rg-9">
          <mxGeometry width="123" height="150" as="geometry" />
        </mxCell>
        <mxCell id="9Fly0qGpTRDZqqpVd0rg-11" value="linux10" style="text;html=1;align=center;verticalAlign=middle;resizable=0;points=[];autosize=1;strokeColor=none;fillColor=none;" vertex="1" parent="9Fly0qGpTRDZqqpVd0rg-9">
          <mxGeometry x="36.224999999999994" y="158" width="60" height="30" as="geometry" />
        </mxCell>
        <mxCell id="9Fly0qGpTRDZqqpVd0rg-17" value="DB01&lt;br&gt;DB01_stdby" style="image;html=1;image=img/lib/clip_art/computers/Database_128x128.png" vertex="1" parent="9Fly0qGpTRDZqqpVd0rg-19">
          <mxGeometry x="138" y="24" width="92" height="80" as="geometry" />
        </mxCell>
        <mxCell id="9Fly0qGpTRDZqqpVd0rg-24" value="STANDBY&lt;br&gt;SINGLE-INSTANCE" style="text;html=1;strokeColor=none;fillColor=none;align=center;verticalAlign=middle;whiteSpace=wrap;rounded=0;" vertex="1" parent="1">
          <mxGeometry x="347.5" y="570" width="135" height="30" as="geometry" />
        </mxCell>
      </root>
    </mxGraphModel>
  </diagram>
</mxfile>
